<svg xmlns="http://www.w3.org/2000/svg" viewBox="0 0 19 19" height="19" width="19"><title>charging_station_15.svg</title><rect fill="none" x="0" y="0" width="19" height="19"></rect><rect x="0" y="0" width="19" height="19" rx="0" ry="0" fill="#4898ff"></rect><path fill="#fff" transform="translate(2 2)" d="M 2.2222083,0.55564594 C 0.92718563,0.55564594 0,1.4395531 0,2.7778542 V 15 H 7.7777289 V 6.2500546 c 0,0 0.9722162,-0.138888 0.9722162,0.9722161 v 4.4444163 c 0,2.222208 2.0718739,2.361097 2.3610959,2.361097 0.306278,0 2.361097,-0.13886 2.361097,-2.361097 V 7.2222707 c 0,0 1.541721,0.019308 1.527768,-3.2985904 H 14.166578 V 1.701472 c 0,-0.6301719 -0.833328,-0.6263761 -0.833328,-0.034722 V 3.8889585 H 12.222145 V 1.66675 c 0,-0.6068676 -0.833328,-0.6057597 -0.833328,0 v 2.2222083 h -0.833328 c 0.01391,3.3181908 1.527768,3.3333124 1.527768,3.3333124 v 4.4444163 c 0,0.971282 -0.852368,0.972216 -0.972216,0.972216 -0.119848,0 -0.972216,-0.04754 -0.972216,-0.972215 V 7.2222707 c 0,-1.4232226 -1.2499919,-2.3610963 -2.3610961,-2.3610963 V 2.7778542 c 0,-1.3582758 -0.9072114,-2.22220826 -2.2222082,-2.22220826 z M 3.2985904,2.7778542 H 6.3541268 L 4.4444165,5.7407986 H 6.7360688 L 2.5347063,11.666687 H 1.7708223 L 3.2985904,7.2222707 H 1.3888801 Z"></path></svg>