<svg xmlns="http://www.w3.org/2000/svg" viewBox="0 0 17 17" height="17" width="17"><title>public_bookcase_11.svg</title><rect fill="none" x="0" y="0" width="17" height="17"></rect><rect x="1" y="1" rx="7.5" ry="7.5" width="15" height="15" stroke="#bbb" style="stroke-linejoin:round;stroke-miterlimit:4;" fill="#bbb" stroke-width="2"></rect><rect x="1" y="1" width="15" height="15" rx="7.5" ry="7.5" fill="#fff"></rect><path fill="#5d60be" transform="translate(3 3)" d="M 5.5000001,0.7857151 0,2.3571431 V 3.142857 L 5.5000001,1.5714291 11,3.142857 V 2.3571431 Z M 2.779157,3.5924954 c -0.1225529,0.0049 -0.244296,0.02916 -0.365234,0.0752 v 4.8876941 c 0,0 1.967574,-0.07553 2.4691691,1.8338455 V 5.2560045 C 4.5003421,4.4582805 3.637034,3.5582854 2.779157,3.5925005 Z M 4.8830921,10.389231 C 3.609813,9.4154447 1.79548,9.1676906 1.79548,9.1676906 V 4.5239965 L 1.178571,4.2784605 V 9.7784598 L 4.8830921,11 h 1.233816 L 9.8214288,9.7784598 V 4.2784605 L 9.2045201,4.5239965 V 9.411692 l -3.087612,0.977539 c -0.411564,-0.155611 -0.89046,-0.127922 -1.233816,0 z m 3.702985,-6.7215405 c -1.230076,-0.0651 -2.649206,0.666199 -3.394531,1.295201 v 5.1715965 c 0.688201,-0.5649598 1.921285,-1.3075604 3.394531,-1.4563354 z"></path></svg>